<?xml version="1.0" encoding="utf-8"?>
<!-- Generator: Adobe Illustrator 23.0.1, SVG Export Plug-In . SVG Version: 6.00 Build 0)  -->
<svg version="1.1" xmlns="http://www.w3.org/2000/svg" xmlns:xlink="http://www.w3.org/1999/xlink" x="0px" y="0px"
	 viewBox="0 0 1224 792" style="enable-background:new 0 0 1224 792;" xml:space="preserve">
<style type="text/css">
	.st0{display:none;}
	.st1{fill:#FFEE1F;stroke:#000000;stroke-width:2;}
	.st2{fill:#FFFFFF;stroke:#000000;stroke-width:2;}
	.st3{fill:#D73A35;stroke:#000000;stroke-width:2;}
	.st4{fill:#37DEF4;stroke:#000000;stroke-width:2;}
	.st5{fill:#FFFFFF;}
	.st6{fill:none;stroke:#000000;stroke-width:2;}
	.st7{fill:#FFED12;stroke:#000000;stroke-width:2;}
</style>
<g id="Layer_1">
	<g id="Layer_5" class="st0">
	</g>
	<g id="Layer_3" class="st0">
	</g>
	<g id="Layer_4">
		<rect x="446.8" y="339.5" class="st1" width="219.6" height="49.2"/>
		<rect x="386.9" y="28.9" class="st2" width="381.6" height="499.2"/>
		<rect x="386.9" y="28.9" class="st3" width="381.6" height="17"/>
		<rect x="408.4" y="46.2" class="st2" width="381.6" height="499.2"/>
		<rect x="408.4" y="46.2" class="st4" width="381.6" height="17"/>
	</g>
	<g id="Layer_6">
		<g>
			
				<image style="overflow:visible;opacity:0.5;enable-background:new    ;" width="430" height="547" xlink:href="../../../../Downloads/71E4913B44A15261.png"  transform="matrix(0.998 0 0 0.998 411.3339 47.452)">
			</image>
			<g>
				<rect x="427.3" y="63.6" class="st5" width="381.6" height="499.2"/>
				<rect x="427.3" y="63.6" class="st6" width="381.6" height="499.2"/>
			</g>
		</g>
		<rect x="427.3" y="63.6" class="st7" width="381.6" height="17"/>
	</g>
</g>
<g id="Layer_2">
	<rect x="673.4" y="228.5" class="st1" width="123" height="26.3"/>
	<rect x="673.4" y="254.8" class="st2" width="123" height="24.9"/>
	<rect x="444.3" y="112.9" class="st1" width="219.6" height="244.8"/>
	<rect x="444.3" y="406.9" class="st2" width="219.6" height="49.2"/>
	<rect x="444.3" y="357.7" class="st2" width="219.6" height="49.2"/>
	<rect x="444.3" y="456.1" class="st2" width="219.6" height="49.2"/>
</g>
</svg>
